<svg id="_x2018_ëîé_x5F_1" xmlns="http://www.w3.org/2000/svg" xmlns:xlink="http://www.w3.org/1999/xlink" viewBox="0 0 500 500"><style>.st0{fill:#039a9e}.st1{fill:#f8eed3}.st2{fill:#332b40}.st3{fill:#7d848a}.st4{fill:#fa6879}.st5{clip-path:url(#SVGID_2_);fill:#e1d5bd}.st6{fill:#71767c}.st7{fill:#e1d5bd}.st8{fill:#05a3a8}.st9{fill:#fffdff}.st10{fill:#1bbc9b}.st11{fill:#aeaeae}.st12{fill:#faf8fa}.st13{fill:#ccc4b0}.st14{fill:#8dc7b8}.st15{fill:#059297}.st16{fill:#e7e2e5}.st17{fill:#e2dee1}.st18{fill:#f2f2f2}.st19{fill:#bfbfbf}.st20{fill:#cfcccd}.st21{fill:#e7e4e5}.st22{fill:#949192}.st23{fill:#949293}.st24{fill:#18a88b}.st25{fill:#9e9c9c}.st26{fill:#fff}.st27{fill:#707070}.st28{fill:#b0b0b0}.st29{fill:#f4434b}.st30{fill:#e6d8da}.st31{fill:#545453}.st32{fill:#2e2639}.st33{fill:#ccbeaa}.st34{fill:#2a2233}.st35{fill:#666a6f}.st36{fill:#80b2a5}.st37{fill:#b9af9e}.st38{fill:#cdc6ca}.st39{fill:#749f94}.st40{fill:#dbd8d9}.st41{fill:#adabac}.st42{fill:#868283}.st43{fill:#ff6138}.st44{fill:#fabb87}.st45{fill:#d1ccce}.st46{fill:#868384}.st47{fill:#d1cace}.st48{fill:#8f8b8c}.st49{fill:#d0c1c4}.st50{fill:#4c4b4b}.st51{fill:#edb180}.st52{fill:#fac294}.st53{fill:url(#SVGID_3_)}.st54{fill:#ffe4cc}.st55{fill:#dbb391}.st56{fill:#f7d4b6}.st57{fill:url(#SVGID_4_)}.st58{fill:#dca526}.st59{fill:#f6c53d}.st60{fill:#facc62}.st61{fill:#333745}.st62{fill:#5d647d}.st63{fill:#393d4d}.st64{fill:#fb8b98}.st65{fill:#060f17}.st66{fill:#5b6269}.st67{fill:#2c3033}</style><path class="st0" d="M500 500H0V0h500v500"/><path class="st1" d="M177.2 304.2h-90V99.8h90v204.4"/><path class="st2" d="M94.1 107.1h77.5v3.7H94.1z"/><path class="st3" d="M94.1 120.1h3v1.8h-3zM94.1 124.7h53.3v1.8H94.1zM94.1 129.3h3.2v1.8h-3.2zM94.1 133.9h71.5v1.8H94.1zM94.1 138.5h3.7v1.8h-3.7zM94.1 143.1h65.1v1.8H94.1zM94.1 147.7h3.5v1.8h-3.5zM94.1 152.4h34.2v1.8H94.1zM94.1 157h3.5v1.8h-3.5zM94.1 161.6h50.5v1.8H94.1zM94.1 166.2h4.2v1.8h-4.2zM94.1 170.8h19.4v1.8H94.1zM94.1 175.4H98v1.8h-3.9zM156.2 181.9H94.1v-1.8h62.1v1.8M94.1 184.7H98v1.8h-3.9zM164.9 191.1H94.1v-1.8h70.8v1.8"/><path class="st2" d="M172.5 275.5H94.1v-1.2h78.4v1.2"/><path class="st3" d="M146.2 290.7H94.1v-1.2h52.1v1.2M123.4 295.3H94.1v-1.1h29.3v1.1M94.1 193.9h3.5v1.8h-3.5zM133.5 200.4H94.1v-1.9h39.4v1.9M94.1 203.1h3.7v1.8h-3.7zM148.8 209.6H94.1v-1.9h54.7v1.9M94.1 212.4H98v1.8h-3.9z"/><path class="st4" d="M168.7 120.1h2.8v1.8h-2.8zM168.7 129.3h2.8v1.8h-2.8zM168.7 138.5h2.8v1.8h-2.8zM168.7 147.7h2.8v1.8h-2.8zM168.7 157h2.8v1.8h-2.8zM171.4 168.1h-2.7v-1.9h2.7v1.9M171.4 177.3h-2.7v-1.9h2.7v1.9M171.4 186.5h-2.7v-1.8h2.7v1.8M171.4 195.7h-2.7v-1.8h2.7v1.8M171.4 205h-2.7v-1.9h2.7v1.9M171.4 214.2h-2.7v-1.8h2.7v1.8"/><path class="st3" d="M144.6 218.8H94.1V217h50.5v1.8M94.1 221.6h4.2v1.8h-4.2zM94.1 226.2h19.4v1.8H94.1zM94.1 230.8H98v1.8h-3.9zM156.2 237.3H94.1v-1.9h62.1v1.9M94.1 240.1H98v1.8h-3.9zM164.9 246.5H94.1v-1.8h70.8v1.8M94.1 249.3h3.5v1.8h-3.5zM94.1 253.9h39.5v1.8H94.1zM94.1 258.5h3.7v1.8h-3.7zM148.8 265H94.1v-1.9h54.7v1.9M94.1 267.7H98v1.8h-3.9z"/><path class="st4" d="M171.4 223.4h-2.7v-1.8h2.7v1.8M171.4 232.7h-2.7v-1.9h2.7v1.9M171.4 241.9h-2.7v-1.8h2.7v1.8M171.4 251.1h-2.7v-1.8h2.7v1.8M171.4 260.4h-2.7v-1.9h2.7v1.9M171.4 269.6h-2.7v-1.9h2.7v1.9"/><path class="st3" d="M95.1 286.3v-4.9h-1.2v-.7h3.6v.7h-1.2v4.9zM99.4 280.7h1.2c.3 0 .6.1.9.4.2.2.4.5.4.9v3.1c0 .3-.1.6-.4.9-.2.2-.5.4-.9.4h-1.2c-.3 0-.6-.1-.9-.4-.2-.2-.4-.5-.4-.9V282c0-.3.1-.6.4-.9.3-.2.6-.4.9-.4zm0 1.3v3.1c0 .2.1.3.2.4.1.1.3.2.4.2.2 0 .3-.1.4-.2.1-.1.2-.3.2-.4V282c0-.2-.1-.3-.2-.4-.1-.1-.3-.2-.4-.2-.2 0-.3.1-.4.2-.2.1-.2.2-.2.4zM103.7 286.3v-4.9h-1.2v-.7h3.7v.7h-1.3v4.9zM106.8 286.3V282c0-.3.1-.6.4-.9.2-.2.5-.4.9-.4h1.2c.3 0 .6.1.9.4.2.2.4.5.4.9v4.3h-1.2v-2.5H108v2.5h-1.2zm1.2-3.1h1.2V282c0-.2-.1-.3-.2-.4-.1-.1-.3-.2-.4-.2-.2 0-.3.1-.4.2-.1.1-.2.3-.2.4v1.2zM111.7 286.3v-5.6h1.2v5h1.9v.6h-3.1"/><defs><path id="SVGID_1_" d="M131.3 218.8h-2.8l4.3 16.6h2.8l-4.3-16.6m-2.4-9.2h-2.8l1.9 7.4h2.8l-1.9-7.4m-2.4-9.2h-2.8l1.9 7.4h2.8l-1.9-7.4m-2.4-9.3h-2.8l1.9 7.4h2.8l-1.9-7.4m-2.4-9.2h-2.8l1.9 7.4h2.8l-1.9-7.4m-2.2-8.5l-2.6.7 1.6 6h2.8l-1.8-6.7"/></defs><clipPath id="SVGID_2_"><use xlink:href="#SVGID_1_" overflow="visible"/></clipPath><path class="st5" d="M116.9 173.4h18.8v62.1h-18.8z"/><path class="st6" d="M121.2 180.1h-2.8l.5 1.8h2.8l-.5-1.8M123.6 189.3h-2.8l.5 1.8h2.8l-.5-1.8M126.1 198.5h-2.9l.5 1.9h2.8l-.4-1.9M128.5 207.7h-2.8l.4 1.9h2.8l-.4-1.9M130.9 217h-2.8l.4 1.8h2.8l-.4-1.8"/><path class="st7" d="M138.6 246.5h-2.8L139 259c1-.3 1.8-.6 2.6-.8l-3-11.7m-2.4-9.2h-2.8l1.9 7.4h2.8l-1.9-7.4"/><path class="st8" d="M208.6 358.4l-38.3 10-2.1-8.1-1.8 3.6 2.1 8.2 40.1-10.4v-3.3"/><path class="st6" d="M135.7 235.4h-2.8l.4 1.9h2.9l-.5-1.9M138.1 244.7h-2.8l.5 1.8h2.8l-.5-1.8"/><path class="st9" d="M351.2 321.3l-180.9 47.1-51.6-198 180.8-47.2 51.7 198.1"/><path class="st10" d="M297.9 148.6L200.5 174l-3.8-14.6 97.4-25.4 3.8 14.6"/><path class="st11" d="M299.8 155.9l-97.4 25.4-.4-1.4 97.4-25.4.4 1.4M305.9 179.2l-97.4 25.4-.4-1.4 97.4-25.4.4 1.4M287 233.5l-66.5 17.3-.3-1.4 66.4-17.3.4 1.4M258 250.3l-35.2 9.1-.4-1.4 35.3-9.1.3 1.4M247.9 201.6l-37.6 9.8-.4-1.4 37.7-9.8.3 1.4"/><path transform="rotate(-14.602 273.648 194.163)" class="st11" d="M254.1 193.4H293v1.4h-38.9z"/><path class="st11" d="M256.7 206.6L212 218.3l-.3-1.4 44.6-11.7.4 1.4M311.2 199.7l-97.4 25.4-.3-1.4 97.4-25.4.3 1.4M241.8 225.2l-26.2 6.8-.3-1.4 26.2-6.8.3 1.4M269.9 169.1l-66.2 17.3-.3-1.4 66.2-17.3.3 1.4M229.4 185.2l-24.3 6.3-.4-1.4 24.4-6.3.3 1.4M304.1 172.4l-97.4 25.4-.6-2.4 97.4-25.4.6 2.4M315.8 217.2l-97.4 25.4-1.3-4.9 97.4-25.4 1.3 4.9M323.2 245.8l-97.4 25.4-1.2-5 97.4-25.3 1.2 4.9"/><path class="st12" d="M243.1 349.1l-72.9 19-51.5-197.7 72.8-19 51.6 197.7"/><path class="st13" d="M341.5 315.7l-97.4 25.4-2.6-10 97.4-25.4 2.6 10"/><path transform="rotate(-14.602 159.196 171.53)" class="st13" d="M127.8 169.3h62.7v4.4h-62.7z"/><path class="st14" d="M221.9 281.3l-67.1 17.5-3-11.6 67.1-17.4 3 11.5"/><path class="st13" d="M179.9 179.9l-34.8 9.1-1.1-4.3 34.8-9.1 1.1 4.3"/><path class="st11" d="M299.9 208.4l-.4.1c-.1-.5.1-.8.6-1l.8-.2c.2-.1.4 0 .6.1.2.1.3.3.4.5v.2c.1.3-.1.7-.5 1.2v.1c-.4.6-.5.9-.5 1.2l1.5-.4.1.4-2.3.6-.1-.4c-.1-.3.1-.7.5-1.2v-.1c.4-.5.5-1 .5-1.2v-.2c0-.1-.1-.2-.2-.2-.1-.1-.2-.1-.3 0l-.4.1c-.3-.1-.4.1-.3.4zM303.1 206.7l.8-.2c.2-.1.4 0 .6.1.2.1.3.3.4.5l.5 1.9c.1.2 0 .4-.1.6-.1.2-.3.3-.5.4l-.8.2c-.2.1-.4 0-.6-.1-.2-.1-.3-.3-.4-.5l-.5-1.9c-.1-.2 0-.4.1-.6.1-.2.3-.4.5-.4zm1 .5c-.1-.2-.3-.3-.5-.2-.1 0-.2.1-.2.2-.1.1-.1.2 0 .3l.3 1.3.4-1.6zm-.3 2.2c0 .1.1.2.2.2h.3c.1 0 .2-.1.2-.2.1-.1.1-.2 0-.3l-.3-1.3-.4 1.6zM306.1 208.8l.8-.2.2.8c.1.5-.1.8-.6 1l-.1-.4c.2-.1.3-.2.3-.5l-.4.1-.2-.8M308.6 208.9l-.7-2.6-.4.1-.1-.4.7-.6.4-.1.9 3.4-.8.2M310 204.9l2.3-.6.1.4-1.5.4.2.8.8-.2c.2-.1.4 0 .6.1.2.1.3.3.4.5l.2.8c.1.2 0 .4-.1.6-.1.2-.3.3-.5.4l-.8.2c-.4.1-.8-.1-1-.6l.4-.1c.1.3.2.3.5.3l.4-.1c.1 0 .2-.1.2-.2.1-.1.1-.2 0-.3l-.2-.8c0-.1-.1-.2-.2-.2-.1-.1-.2-.1-.3 0l-1.1.3-.4-1.7"/><path class="st9" d="M262.5 152.6l-4.9 1.3-1.2-4.8 4.8-1.3 1.3 4.8M269.7 150.7l-4.8 1.3-1.3-4.8 4.9-1.3 1.2 4.8M277 148.9l-4.8 1.2-1.3-4.8 4.8-1.3 1.3 4.9M284.3 147l-4.9 1.2-1.2-4.8 4.8-1.3 1.3 4.9M291.5 145.1l-4.8 1.2-1.3-4.8 4.9-1.3 1.2 4.9"/><path class="st11" d="M231.5 285l-1.2-4.6-1.2.3-.2-.6 3.5-.9.2.6-1.2.3 1.2 4.6-1.1.3M234.2 278.8l1.2-.3c.3-.1.6 0 .9.1.3.2.5.4.6.7l.8 2.9c.1.3 0 .6-.1.9-.2.3-.4.5-.7.6l-1.2.3c-.3.1-.6 0-.9-.1-.3-.2-.5-.4-.6-.7l-.8-2.9c-.1-.3 0-.6.1-.9.1-.4.3-.6.7-.6m.3 1.1l.8 2.9c0 .2.1.3.3.4.1.1.3.1.5.1s.3-.1.4-.3c.1-.1.1-.3.1-.5l-.8-2.9c0-.2-.1-.3-.3-.4-.1-.1-.3-.1-.5-.1s-.3.1-.4.3c-.2.2-.2.4-.1.5M239.6 282.9l-1.2-4.6-1.2.3-.1-.6 3.4-.9.2.6-1.2.3 1.2 4.6-1.1.3M242.5 282.2l-1.1-4.1c-.1-.3 0-.6.1-.9.2-.3.4-.5.7-.6l1.2-.3c.3-.1.6 0 .9.1.3.2.5.4.6.7l1.1 4.1-1.2.3-.6-2.3-1.2.3.6 2.3-1.1.4m.4-3.2l1.2-.3-.3-1.2c0-.2-.1-.3-.3-.4-.1-.1-.3-.1-.5-.1s-.3.1-.4.3c-.1.1-.1.3-.1.5l.4 1.2M247.1 281l-1.3-5.3 1.1-.3 1.3 4.7 1.7-.5.1.6-2.9.8"/><path class="st8" d="M210.2 361.2l-1.6.5V399h147.7v-1.9H210.2v-35.9"/><path class="st15" d="M210.2 358l-1.6.4v3.3l1.6-.5V358"/><path class="st16" d="M210.2 357.6l-1.6.5v.3l1.6-.4v-.4"/><path class="st17" d="M210.2 356.8h-1.6v1.3l1.6-.5v-.8"/><path class="st18" d="M357.9 397.1H210.2V267.4h147.7v129.7"/><path class="st19" d="M352.8 392H215.3V272.4h137.5V392m-136.6-.9h135.7V273.4H216.2v117.7"/><path class="st20" d="M258.6 272.9V392h1V272.9"/><path class="st21" d="M223.1 381.4h28.6v5.5h-28.6z"/><path class="st22" d="M258.9 313.8h.5v.9h-.5zM305.3 314.7h-1v-.9h1v.9zm-1.9 0h-1v-.9h1v.9zm-2 0h-1v-.9h1v.9zm-1.9 0h-1v-.9h1v.9zm-1.9 0h-1v-.9h1v.9zm-1.9 0h-1v-.9h1v.9zm-1.9 0h-1v-.9h1v.9zm-1.9 0h-1v-.9h1v.9zm-1.9 0h-1v-.9h1v.9zm-1.9 0h-1v-.9h1v.9zm-2 0h-1v-.9h1v.9zm-1.9 0h-1v-.9h1v.9zm-1.9 0h-1v-.9h1v.9zm-1.9 0h-1v-.9h1v.9zm-1.9 0h-1v-.9h1v.9zm-1.9 0h-1v-.9h1v.9zm-1.9 0h-1v-.9h1v.9zm-1.9 0h-1v-.9h1v.9zm-2 0h-1v-.9h1v.9zm-1.9 0h-1v-.9h1v.9zm-1.9 0h-1v-.9h1v.9zm-1.9 0h-1v-.9h1v.9zm-1.9 0h-1v-.9h1v.9zm-1.9 0h-1v-.9h1v.9zM306.2 313.8h.5v.9h-.5z"/><path class="st22" d="M304.8 313.8h.5v.9h-.5zM351.2 314.7h-1v-.9h1v.9m-1.9 0h-1v-.9h1v.9m-2 0h-1v-.9h1v.9m-1.9 0h-1v-.9h1v.9m-1.9 0h-1v-.9h1v.9m-1.9 0h-1v-.9h1v.9m-1.9 0h-1v-.9h1v.9m-1.9 0h-1v-.9h1v.9m-1.9 0h-1v-.9h1v.9m-1.9 0h-1v-.9h1v.9m-2 0h-1v-.9h1v.9m-1.9 0h-1v-.9h1v.9m-1.9 0h-1v-.9h1v.9m-1.9 0h-1v-.9h1v.9m-1.9 0h-1v-.9h1v.9m-1.9 0h-1v-.9h1v.9m-1.9 0h-1v-.9h1v.9m-1.9 0h-1v-.9h1v.9m-2 0h-1v-.9h1v.9m-1.9 0h-1v-.9h1v.9m-1.9 0h-1v-.9h1v.9m-1.9 0h-1v-.9h1v.9m-1.9 0h-1v-.9h1v.9m-1.9 0h-1v-.9h1v.9M352.6 314.7h-.5v-.9h.5v.9M216.4 314.7h1v-.9h-1v.9M218.3 314.7h1v-.9h-1v.9M227.9 313.8v.9h1v-.9h-1M226 314.7h.9v-.9h-.9v.9M222.2 314.7h.9v-.9h-.9v.9M220.2 314.7h1v-.9h-1v.9M224.1 314.7h.9v-.9h-.9v.9M230.3 314.7h-.5v-.9h.5v.9"/><path class="st22" d="M228.9 314.7h-.5v-.9h.5v.9M274.8 314.7h-1v-.9h1v.9m-2 0h-1v-.9h1v.9m-1.9 0h-1v-.9h1v.9m-1.9 0h-1v-.9h1v.9m-1.9 0h-1v-.9h1v.9m-1.9 0h-1v-.9h1v.9m-1.9 0h-1v-.9h1v.9m-1.9 0h-1v-.9h1v.9m-1.9 0h-1v-.9h1v.9m-2 0h-1v-.9h1v.9m-1.9 0h-1v-.9h1v.9m-1.9 0h-1v-.9h1v.9m-1.9 0h-1v-.9h1v.9m-1.9 0h-1v-.9h1v.9m-1.9 0h-1v-.9h1v.9m-1.9 0h-1v-.9h1v.9m-1.9 0h-1v-.9h1v.9m-2 0h-1v-.9h1v.9m-1.9 0h-1v-.9h1v.9m-1.9 0h-1v-.9h1v.9m-1.9 0h-1v-.9h1v.9m-1.9 0h-1v-.9h1v.9m-1.9 0h-1v-.9h1v.9m-1.9 0h-1v-.9h1v.9M275.7 313.8h.5v.9h-.5z"/><path class="st21" d="M249.7 276.8h5.5v5.5h-5.5zM262.9 278.6h82.2v-1.8h-82.2v1.8"/><path class="st23" d="M262.9 322.7h82.2v-1.3h-82.2v1.3M262.9 333.1h70.8v1.3h-70.8zM262.9 325.7h50v1.3h-50z"/><path class="st21" d="M261.8 300.5h88.1v-3.4h-88.1v3.4M261.8 307.9h88.1v-3.4h-88.1v3.4M261.8 375.9h88.1v-5.6h-88.1v5.6M261.8 380.2h88.1v5.7h-88.1zM262.9 281h25.8v1.7h-25.8z"/><path class="st8" d="M316.8 163.4H310l.5 1.8 1.5 1.5 1.6-1.6 1.6 1.6 1.6-1.6v-1.7m-73.6-97.3l-1.2 1.2.1.1v70.8l1.2-.3V66.1"/><path class="st16" d="M259.6 166.4l-.6.2.2.2.4-.4m4.2-1.1l-2.4.6.9.9 1.5-1.5m46.2-1.9h-39l-7.1 1.8 1.5 1.5 1.6-1.6 1.6 1.6 1.6-1.6 1.6 1.6 1.6-1.6 1.6 1.6 1.6-1.6 1.6 1.6 1.6-1.6 1.6 1.6 1.6-1.6 1.6 1.6 1.6-1.6 1.6 1.6 1.6-1.6 1.6 1.6 1.6-1.6 1.6 1.6 1.6-1.6 1.6 1.6 1.6-1.6 1.6 1.6 1.6-1.6 1.6 1.6 1.6-1.6 1.6 1.6 1.6-1.6 1.6 1.6 1.6-1.6-1.8-1.7m-66.8-.6l-1.2.3v2l1.6 1.6 1.6-1.6 1.6 1.6 1.6-1.6 1.6 1.6 1.6-1.6 1.4 1.4.4-.1 1.3-1.3.8.8 2.1-.5.2-.2.1.1 7.5-1.9h-22v-.6m-.2-24.9l-1.2.3v9.4l1.2-.3v-9.4"/><path class="st24" d="M243.2 147.3l-1.2.3v15.5l1.2-.3v-15.5"/><path class="st25" d="M253.2 166.5l-.4.1.1.1.3-.2m4.2-1l-2.1.5.8.8 1.3-1.3m13.6-2.1h-5.7l-7.5 1.9 1.2 1.2.6-.2 1.2-1.2.7.7 2.4-.6.1-.1 7-1.7"/><path class="st26" d="M317.9 163.4h-74.7V65.6h74.7v97.8"/><path class="st27" d="M263.3 72.8H299v3.3h-35.7zM256.8 80.2h48.6v3.3h-48.6z"/><path class="st28" d="M249.2 88.2H313V90h-63.8zM261.3 148.9h39.5v1.8h-39.5zM270.3 153.5H292v1.8h-21.7zM249.2 106.1h40.4v1.8h-40.4zM249.2 101.9h2.1v1.8h-2.1zM249.2 114.6h48v1.8h-48z"/><path class="st27" d="M249.2 143.9h64.6v1h-64.6z"/><path class="st28" d="M249.2 110.4h2.1v1.8h-2.1zM249.2 123.4h20.1v1.8h-20.1z"/><path class="st29" d="M249.2 138.4h13.4v1.8h-13.4z"/><path class="st28" d="M249.2 119.2h2.1v1.8h-2.1zM249.2 94.9h32.5v1.8h-32.5zM289.3 94.9h23.8v1.8h-23.8z"/><path class="st26" d="M246.3 65.6l1.5 1.6 1.6-1.6 1.6 1.6 1.5-1.6 1.6 1.6 1.5-1.6 1.6 1.6 1.5-1.6 1.6 1.6 1.6-1.6 1.5 1.6 1.6-1.6 1.5 1.6 1.6-1.6 1.5 1.6 1.6-1.6 1.5 1.6 1.6-1.6 1.6 1.6 1.5-1.6 1.6 1.6 1.5-1.6 1.6 1.6 1.5-1.6 1.6 1.6 1.6-1.6 1.5 1.6 1.6-1.6 1.5 1.6 1.6-1.6 1.5 1.6 1.6-1.6 1.5 1.6 1.6-1.6 1.6 1.6 1.5-1.6 1.6 1.6 1.5-1.6 1.6 1.6 1.5-1.6 1.6 1.6 1.6-1.6 1.5 1.6 1.6-1.6 1.5 1.6 1.6-1.6-1.6-1.7-1.5 1.6-1.6-1.6-1.5 1.6-1.6-1.6-1.6 1.6-1.5-1.6-1.6 1.6-1.5-1.6-1.6 1.6-1.5-1.6-1.6 1.6-1.6-1.6-1.5 1.6-1.6-1.6-1.5 1.6-1.6-1.6-1.5 1.6-1.6-1.6-1.5 1.6-1.6-1.6-1.6 1.6-1.5-1.6-1.6 1.6-1.5-1.6-1.6 1.6-1.5-1.6-1.6 1.6-1.6-1.6-1.5 1.6-1.6-1.6-1.5 1.6-1.6-1.6-1.5 1.6-1.6-1.6-1.5 1.6-1.6-1.6-1.6 1.6-1.5-1.6-1.6 1.6-1.5-1.6-1.6 1.6-1.5-1.6-1.6 1.6-1.6-1.6-1.5 1.6-1.6-1.6-1.6 1.7 1.6 1.6zM314.7 163.3l-1.5-1.5-1.6 1.5-1.5-1.5-1.6 1.5-1.5-1.5-1.6 1.5-1.5-1.5-1.6 1.5-1.6-1.5-1.5 1.5-1.6-1.5-1.5 1.5-1.6-1.5-1.5 1.5-1.6-1.5-1.5 1.5-1.6-1.5-1.5 1.5-1.6-1.5-1.6 1.5-1.5-1.5-1.6 1.5-1.5-1.5-1.6 1.5-1.5-1.5-1.6 1.5-1.5-1.5-1.6 1.5-1.5-1.5-1.6 1.5-1.6-1.5-1.5 1.5-1.6-1.5-1.5 1.5-1.6-1.5-1.5 1.5-1.6-1.5-1.5 1.5-1.6-1.5-1.6 1.5-1.5-1.5-1.6 1.5-1.5-1.5-1.6 1.5-1.5-1.5-1.6 1.6 1.6 1.6 1.5-1.6 1.6 1.6 1.5-1.6 1.6 1.6 1.5-1.6 1.6 1.6 1.6-1.6 1.5 1.6 1.6-1.6 1.5 1.6 1.6-1.6 1.5 1.6 1.6-1.6 1.5 1.6 1.6-1.5 1.6 1.5 1.5-1.5 1.6 1.5 1.5-1.5 1.6 1.5 1.5-1.5 1.6 1.5 1.5-1.5 1.6 1.5 1.5-1.5 1.6 1.5 1.6-1.5 1.5 1.5 1.6-1.5 1.5 1.5 1.6-1.5 1.5 1.5 1.6-1.5 1.5 1.5 1.6-1.5 1.5 1.5 1.6-1.5 1.6 1.5 1.5-1.5 1.6 1.5 1.5-1.5 1.6 1.5 1.5-1.5 1.6 1.5 1.5-1.5 1.6 1.5 1.6-1.6-1.6-1.6z"/><path class="st8" d="M322.6 147l-8.4 32.5.8 3.1 9.1-35.2-1.5-.4"/><path class="st16" d="M314.2 179.5l-4.7 18.1c.2.2.5.5 1 .9l.4-.1v.1l4.1-15.9-.8-3.1"/><path class="st25" d="M310.9 198.3l-.4.1.3.3.1-.4"/><path class="st16" d="M322.5 246l-2.7.7 9.3 2.4-.9-1.6-5.7-1.5m-17.2-26l-1.7.4-5.3 20.7 11.4 2.9 2.7-.7-12.2-3.2 5.1-20.1m4.4-19.8l-.9.2-2.1 8.2.2-.1.2.8c.1.5-.1.8-.6 1l-.1-.4c.2-.1.3-.2.3-.5l-.3.1-1.4 5.3 1.7-.4 1.6-6.2-.5-1.9-.4.1-.1-.4.7-.6.4-.1.3 1.3 1.1-4.3c-.1-.4-.1-.9-.1-1.2v-.9m-.3-2.3l-.2.8.3-.1c0-.2-.1-.4-.1-.7"/><path class="st25" d="M309.5 198.7l-.3.1-.4 1.6.9-.2c-.1-.5-.1-1.1-.2-1.5M306.8 214.3l-1.7.5-1.5 5.6 1.7-.4 1.5-5.7M312.3 243.4l-2.7.7 10.2 2.6 2.7-.7-10.2-2.6M306.9 208.6l-.2.1-.2.9.3-.1c.1.2 0 .4-.3.5l.1.4c.5-.2.7-.5.6-1l-.3-.8M308.5 205.3l-.4.1-.7.6.1.4.4-.1.5 1.9.4-1.6-.3-1.3"/><path class="st8" d="M345.5 251.9l.1.2c0-.1-.1-.1-.1-.2"/><path class="st30" d="M355.2 254.4l-55.1-14.2 24.3-94.1 55.1 14.2-24.3 94.1"/><path class="st31" d="M331.6 153.7l3.9 1c1.3.3 2.3.9 2.9 1.7.6.8.7 1.7.5 2.7-.1.6-.5 1-1 1.4-.5.4-1.2.5-1.9.4.8.4 1.4.9 1.7 1.6.3.7.3 1.7 0 2.9s-.9 2-1.9 2.4c-.9.4-2.2.4-3.7 0l-3.9-1 3.4-13.1zm1.4 1.9l-.9 3.6 2.1.5c.9.2 1.5.2 2 0s.8-.6.9-1.1c.2-.7.1-1.2-.2-1.6-.3-.4-.9-.7-1.8-.9l-2.1-.5zm-1.3 5l-1.3 5.2 2.1.5c1 .3 1.8.3 2.3 0 .5-.2.9-.8 1.1-1.6.3-1.1.2-1.9-.1-2.4-.4-.5-1-.9-2-1.2l-2.1-.5zM342.7 156.5l7.3 1.9-.4 1.5-2.7-.7-2.7 10.1 2.8.7-.4 1.5-7.3-1.9.4-1.5 2.8.7 2.6-10.1-2.8-.7zM353.7 159.4l1.7.4-3 11.6 6.4 1.7-.4 1.5-8.1-2.1zM364.5 162.1l1.8.5-3 11.6 6.3 1.7-.4 1.4-8.1-2z"/><path transform="rotate(-75.522 346.037 176.223)" class="st31" d="M345.4 150.7h1.3v51h-1.3z"/><path class="st31" d="M368.1 192.7l-49.4-12.8.2-.7 49.4 12.7zM359 195.4l-41.5-10.8.2-.7 41.5 10.7zM348 197.5l-31.7-8.2.2-.7 31.7 8.1z"/><path transform="rotate(-75.522 337.044 199.282)" class="st31" d="M336.6 176.7h.8v45.1h-.8z"/><path transform="rotate(-75.522 335.542 203.897)" class="st31" d="M335.1 181.6h.8v44.5h-.8z"/><path class="st31" d="M351.6 213.5l-38.9-10.1.2-.8 38.9 10.1-.2.8M359.4 220.5l-47.9-12.4.2-.8 47.9 12.4-.2.8M357.5 225l-47.2-12.2.1-.8 47.3 12.2-.2.8"/><path class="st8" d="M150.8 304.2h-47c-5.2 10.1-9.3 20.1-9.9 26.9-1.5 16.1-3.3 44.9-5.1 77.1h-1.5l-.3 5-3.5-.1L79 500h71.1l-2.1-85.8h-1.3l.1-4.3-2.4-.1v-3.4l21.8-42.4-15.4-59.8"/><path class="st7" d="M143.3 275.5h-22.7c-2 3-4.1 6.4-6.4 10.2h.6v.6h-1c-.6 1.1-1.3 2.2-1.9 3.3h34.4v1.2h-35.1c-.7 1.1-1.3 2.3-2 3.5h14.2v1.2h-14.9c-1.6 2.9-3.3 5.9-4.8 8.9h47l-7.4-28.9m-2.7-10.5h-12.4c-.3.3-.6.6-.8.9-1.1 1.3-3.3 4.3-6 8.5H143l-2.4-9.4m-1.6-6c-2.7.9-5.9 2.3-8.6 4.1h9.7L139 259"/><path class="st32" d="M143 274.3h-21.6c-.2.4-.5.8-.8 1.2h22.7l-.3-1.2"/><path class="st6" d="M146.2 289.5h-34.4c-.2.4-.5.8-.7 1.2h35.1v-1.2M123.4 294.2h-14.2c-.2.4-.4.8-.7 1.2h14.9v-1.2M140.1 263.1h-9.7c-.8.6-1.6 1.2-2.3 1.8h12.4l-.4-1.8M114.8 285.7h-.6c-.1.2-.2.4-.4.6h1v-.6"/><path class="st33" d="M141.6 258.2c-.8.2-1.6.5-2.6.8l1.1 4.1h2.8l-1.3-4.9"/><path class="st15" d="M153.6 304.2h-2.8l15.6 59.7 1.8-3.6-14.6-56.1"/><path class="st33" d="M146.1 275.5h-2.8l7.5 28.7h2.8l-7.5-28.7m-2.7-10.5h-2.8l2.4 9.3h2.8l-2.4-9.3"/><path class="st34" d="M145.8 274.3H143l.3 1.2h2.8l-.3-1.2"/><path class="st35" d="M142.9 263.1h-2.8l.5 1.9h2.8l-.5-1.9"/><path class="st16" d="M141.6 258.2l1.3 4.9.5 1.8 2.4 9.3.3 1.2 7.5 28.7 14.6 56.1-26.6-102m90.7-72.4H227l-22 5.7-.4-1.4 16.6-4.3H206l-2.4.6-.2-.6h-3.1l21.3 81.6h3.1l-.3-1.1 7.8-2V257l-9.6 2.5-.4-1.4 9.9-2.6v-7.7l-11.8 3.1-.4-1.4 12.2-3.2V239l-14 3.6-1.3-4.9 15.2-4v-6.1l-16.7 4.4-.4-1.4 17.1-4.5v-5.8l-18.5 4.8-.4-1.4 18.9-4.9V213l-20.3 5.3-.4-1.4 20.7-5.4v-5.8l-22.1 5.8-.4-1.4 22.5-5.9v-5.8l-23.9 6.2-.4-1.4 24.2-6.3v-5.7l-25.6 6.7-.6-2.5 26.3-6.8v-2.8"/><path class="st25" d="M232.3 196.8l-24.2 6.4.4 1.4 23.8-6.3v-1.5M232.3 246.3l-12.1 3.1.3 1.4 11.8-3v-1.5M232.3 255.5l-9.9 2.5.4 1.4 9.5-2.4v-1.5M232.3 204.2l-22.4 5.8.4 1.4 22-5.7v-1.5M232.3 211.5l-20.6 5.4.3 1.4 20.3-5.3v-1.5M232.3 218.8l-18.8 4.9.3 1.4 18.5-4.8v-1.5M232.3 226.1l-17 4.5.3 1.4 16.7-4.4v-1.5M206.1 185.8h-2.5l.1.6 2.4-.6M227 185.8h-5.7l-16.6 4.3.4 1.4 21.9-5.7M232.3 188.5l-26.2 6.9.6 2.4 25.6-6.7v-2.6M232.3 233.8l-15.2 3.9 1.3 4.9 13.9-3.6v-5.2M232.3 264.2l-7.7 2 .2 1.2h7.5v-3.2"/><path class="st17" d="M200.5 185.8h-43.1l-12.3 3.2-.8-3.2h-.1v71.8c-.3.1-1.2.3-2.5.6l26.6 102.1 1.8-3.5h38.6v-72l-53.8 14-3-11.6 56.9-14.8v-3.1h1.6v-2H222l-21.5-81.5"/><path class="st36" d="M208.6 272.4l-56.8 14.8 3 11.6 53.8-14v-12.4"/><path class="st37" d="M157.4 185.8h-13.1l.8 3.2 12.3-3.2"/><path class="st38" d="M210.2 284.4l-1.6.4v72h1.6v-72.4m0-15h-1.6v3.1l1.6-.4v-2.7"/><path class="st39" d="M210.2 272l-1.6.4v12.4l1.6-.4V272"/><path class="st40" d="M216.4 314.7v-.9h1v.9h-1m1.9 0v-.9h1v.9h-1m1.9 0v-.9h1v.9h-1m2 0v-.9h1v.9h-1m1.9 0v-.9h1v.9h-1m1.9 0v-.9h1v.9h-1m2.4-.9h.5v.9h-1v-.9h.5m1.4 0h1v.9h-1v-.9m2.5-40.4h-16.1v83.4h16.1v-42h-.6v-.9h.6v-40.5m0-6h-22.2v89.4h5.1v-84.3h17.1v-5.1"/><path class="st41" d="M232.3 272.4h-17v84.4h.9v-83.4h16.1v-1"/><path class="st42" d="M217.4 313.8h-1v.9h1v-.9M219.3 313.8h-1v.9h1v-.9M228.4 313.8h-.5v.9h1-.5v-.9M226.9 313.8h-.9v.9h.9v-.9M223.1 313.8h-.9v.9h.9v-.9M221.2 313.8h-1v.9h1v-.9M225 313.8h-.9v.9h.9v-.9M229.8 313.8v.9h.5-.5v-.9"/><path class="st42" d="M228.9 313.8h-.5v.9h.5v-.9M230.8 313.8h-1v.9h1v-.9m1.5 0h-.6v.9h.6v-.9"/><path class="st26" d="M138.5 180.3h88.2v171h-88.2z"/><path class="st31" d="M153.6 209.6V189h9.2c1.3 0 2.3.5 3.2 1.4.9.9 1.4 2 1.4 3.2v1.1c0 1.4-.4 2.4-1.1 3.2-.8.8-1.9 1.2-3.4 1.4 1.5 0 2.7.5 3.4 1.4.8.9 1.1 2 1.1 3.2v1.1c0 1.2-.5 2.3-1.4 3.2-.9.9-2 1.4-3.2 1.4h-9.2zm4.6-11.5h2.3c.6 0 1.2-.2 1.6-.7.5-.4.7-1 .7-1.6v-2.3c0-.6-.2-1.2-.7-1.6-.5-.4-1-.7-1.6-.7h-2.3v6.9zm0 9.2h2.3c.6 0 1.2-.2 1.6-.7.5-.5.7-1 .7-1.6v-2.3c0-1.5-.8-2.3-2.3-2.3h-2.3v6.9zM174.3 189h4.6v20.7h-4.6zM185.8 209.6V189h4.5v18.3h6.9v2.3zM201.8 209.6V189h4.6v18.3h6.9v2.3zM146.8 216.7h70.9v2.1h-70.9zM146.8 306.2h70.9v2.1h-70.9zM162.2 231.3h31.7v2.1h-31.7zM162.2 241.9h49.5v2.1h-49.5zM162.2 251.9h56.5v2.1h-56.5zM162.2 295.1h50v2.1h-50zM162.2 263h19.1v2.1h-19.1zM162.2 284.4h19.1v2.1h-19.1zM162.2 273.5h30.5v2.1h-30.5z"/><path class="st43" d="M149.8 230.3h4.2v4.2h-4.2zM149.8 241h4.2v4.2h-4.2zM149.8 251.6h4.2v4.2h-4.2zM149.8 262.2h4.2v4.2h-4.2zM149.8 272.8h4.2v4.2h-4.2zM149.8 283.5h4.2v4.2h-4.2zM149.8 294.1h4.2v4.2h-4.2z"/><path class="st44" d="M138.7 398v20.7l-.1 15.2H81c2.3-45.1 4.9-89.7 6.9-111.3 1.7-18.3 28.6-59.3 33.5-65.2 4.9-5.8 16.9-8.3 16.9-8.3l.2 77.5c.8 1.7 4.4 4.1 7-.6l25.1-41.7c3.9-6.1 9.5-10.7 16.1-7.1 6.6 3.6 8.8 11.5 4.9 17.6L138.7 398z"/><path class="st9" d="M140.9 408l.1-6.5-59.6-1.7-.4 5.8z"/><path class="st2" d="M72.7 500l4.8-95.3 64.7 1.1 2.3 94.2z"/><path class="st8" d="M315.8 499.9v.1-.1"/><path class="st16" d="M309.3 197.4s0 .2.1.6l.1-.4-.2-.2"/><path class="st8" d="M332.6 250l2.9 11.3 1.8 3.4c.3.2.5.3.8.5 1 .7 2 1.4 2.9 2.2h12.6l-2.5-4.7c1.2 1.6 2.6 3.2 4 4.7h2.7v2.8c1.1 1.1 2.2 2.2 3.4 3.2-.7 2-.5 4.8 1.7 8.7 5.8 10.3 13.5 20 13.5 20l6.2 10-2 6.6-22.8-43.2v19.8c2.8 8.2 4.1 15.1 4.3 16.7l.2.4 26.4 12.9L399 308l-16.3-24.9s-21.4-14.7-30.5-28l-19.6-5.1"/><path class="st16" d="M329.1 249.1l6.4 12.1-2.9-11.2-3.5-.9"/><path class="st40" d="M351.9 273.4h-5.2c2 2.5 3.7 5.3 5.2 8.1v-8.1m1.7-6H341c1.8 1.5 3.4 3.2 4.9 5.1h6.9v10.8c2.1 4.1 3.7 8.3 5.1 12.1v-19.8l-4.3-8.2m4.3 0h-2.7c.9 1 1.8 1.9 2.7 2.8v-2.8"/><path class="st41" d="M352.8 272.4h-6.9c.2.3.5.6.7.9h5.2v8.1l.9 1.8v-10.8"/><path class="st8" d="M357.9 378.5v10.6l3.9 7 .1 10.5-3.6.1.1 4.3h-1.2l-2.2 89h71.4l-4.6-90.1-3.5.1-.3-5h-.1l-.8 26.6-52-1.6-.3-39.1-6.9-12.4"/><path class="st40" d="M352.8 369.4V380l5.1 9.1v-10.6l-5.1-9.1M340 322.7h-4.6l6.3 20.7 4.2 24.2 1.5 2.6h2.5v4.4l2 3.6v-10.6l-2.9-5.3-4.2-24.2-4.8-15.4m-5.1-8v-.9h1v.9h-1m.6-6.8h-4.6l2.1 6.8v-.9h1v.9h-1l2 6.7h4.6l-2-6.7h-.8v-.9h.5l-1.8-5.9m-2.2-7.4h-4.6l1.2 4h4.6l-1.2-4m-6.7-21.9H322l5.6 18.6h4.6l-5.6-18.6m-1.6-5.2h-3.1c-.6 1.1-.8 2-.8 2l.5 1.5h4.6l-1.2-3.5m-.9-3.1c-.7.7-1.2 1.4-1.7 2.2h2.3l-.6-2.2"/><path class="st41" d="M351.9 367.8v10.6l.9 1.7v-10.6l-.9-1.7m-27.2-95.4h-2.3c-.2.3-.4.6-.5.9h3.1l-.3-.9"/><path class="st42" d="M334 313.8h-1v1h.9v-1m2 0h-1v.9h1v-.9m1.4 0h-.5v.9h.8l-.3-.9"/><path class="st45" d="M326.1 276.8h-4.6l.5 1.8h4.6l-.5-1.8"/><path class="st46" d="M339.6 321.4H335l.4 1.3h4.6l-.4-1.3"/><path class="st45" d="M332.2 297.1h-4.5l1 3.4h4.6l-1.1-3.4M334.5 304.5h-4.6l1 3.4h4.6l-1-3.4M349.9 370.3h-2.5l2.5 4.4v-4.4"/><path class="st47" d="M310.5 199.9l-.8.2c0 .3.1.6.1.9 0 .4.1.8.1 1.2l.6-2.3m-1-2.3l-.1.4c0 .2.1.5.1.8l1-.3c-.4-.4-.8-.8-1-.9"/><path class="st48" d="M310.5 198.5l-1 .3c.1.4.1.9.2 1.5l.8-.2.3-1.2c-.1-.3-.2-.4-.3-.4"/><path class="st15" d="M332.2 248.5l.4 1.5 19.8 5.1c-.4-.6-.7-1.1-1.1-1.7l-5.8-1.5v.2l-.1-.2-13.2-3.4"/><path class="st47" d="M328.3 247.5l.8 1.6 3.5.9-.4-1.5-3.9-1"/><path class="st49" d="M348.4 243.7c-.3.3-.7.6-1.1 1.1-1.8 2-2.3 4.5-1.8 7.1l5.8 1.5c-2.1-3.4-3.3-6.8-2.9-9.7m-37-30.6c.3 1.9.5 3.3.5 3.4.1.1.1.2.2.4l16.1 30.6 3.9 1 13.3 3.4-18.3-34.8-15.7-4m-.6-14.3l-.3 1.2-.6 2.3c.3 3 .9 6.9 1.4 9.9l15.4 4-2.6-4.8-12.6-3.3.2-.8 11.9 3.1c-.5-.5-3.3-3.1-6.1-5.8l-4.7-1.2.2-.8 3.3.8c-1.5-1.4-2.9-2.7-4.1-3.6-.5-.3-1-.7-1.4-1"/><path class="st50" d="M312.9 202.6l-.2.8 4.7 1.2c-.4-.4-.8-.8-1.2-1.1l-3.3-.9M311.7 207.3l-.2.8 12.6 3.3-.3-.6c-.1-.1-.1-.2-.2-.3l-.1-.1-11.8-3.1M311.3 212.2c0 .3.1.6.1.9l15.7 4.1-.5-.9-15.3-4.1"/><path class="st51" d="M358 256.5s-5.3 2.3.5 12.6 21 27.9 21 27.9l6.2 10-2.7 8.7s5.5 11.5 6 11.3 10.5-9.5 10.5-9.5l3.7-17.5-3.7-11-16.3-17.3-25.2-15.2z"/><path class="st52" d="M365.1 430l-.3-39.1-15.8-28.4-4.2-24.2-20.8-68.1s3.7-12 14-5c18.8 12.8 24.2 47.2 24.2 47.2l26.5 13 10.3-17.3-16.3-24.9s-44.2-30.4-32.5-43.5c3.6-4.1 4.4-1 19.3 10s29 10.3 32.5 13.9c3.6 3.6 28.7 39 28.7 39l-11.8 68-1.9 61-51.9-1.6"/><linearGradient id="SVGID_3_" gradientUnits="userSpaceOnUse" x1="-703" y1="3" x2="-702" y2="3" gradientTransform="rotate(-27.639 -3764.325 -18520.806) scale(12.5747)"><stop offset="0" stop-color="#ffbe00"/><stop offset=".333" stop-color="#ffc51b"/><stop offset="1" stop-color="#ffd55b"/></linearGradient><path class="st53" d="M381.9 337.7l-66.6-126.4 10.9-5.6L392.7 332z"/><path class="st54" d="M315 211.4c-.1-.5-1.7-10.5-2.2-15.5.5.6 1.1 1.1 1.5 1.3l4.5 12.2c-.4 4.6-3.5 2.2-3.8 2z"/><path class="st55" d="M322.9 207.2l-7.7-10.7c.1-.5 0-1.1-.2-1.8 3.9 3.3 11.2 10.3 11.6 10.6.1 5.3-3.7 1.9-3.7 1.9z"/><path class="st56" d="M318.8 209.4l-4.5-12.2c.3.1.5.1.7 0 .2-.1.3-.3.4-.6l7.7 10.7c-.2-.1.2 5.2-4.3 2.1z"/><linearGradient id="SVGID_4_" gradientUnits="userSpaceOnUse" x1="-703" y1="3" x2="-702" y2="3" gradientTransform="rotate(62.361 -1945.302 3595.407) scale(5.5659)"><stop offset="0" stop-color="#2f2933"/><stop offset="1"/></linearGradient><path class="st57" d="M315.3 196.5c0 .3-.2.5-.4.6-.2.1-.4.1-.7 0-.4-.2-.9-.6-1.5-1.3-.2-1.6-.4-3.6-.4-3.6s1.5 1.4 2.7 2.5c.3.7.3 1.4.3 1.8z"/><path class="st58" d="M381.6 337.9l-66.5-126.2c-.1-.1-.1-.2-.2-.4.3.2 3.5 2.7 3.8-2l66.7 126.6-3.8 2z"/><path class="st59" d="M385.4 335.9l-66.7-126.6c4.6 3.2 4.2-2.2 4.2-2.2l66.7 126.6-4.2 2.2z"/><path class="st60" d="M389.6 333.7l-66.7-126.6s3.7 3.5 3.7-1.9c.1.1.1.2.2.3l66.5 126.2-3.7 2z"/><path class="st4" d="M392.3 330.2l1 1.9c1.8 3.4.8 7.4-2.2 9l-.5.3c-3 1.6-6.9.1-8.6-3.3l-1-1.9 11.3-6"/><path class="st61" d="M380.6 326.7l-3.9 2 4.8 9.3 3.9-2z"/><path class="st62" d="M384.7 324.6l-4.2 2.1 4.9 9.3 4.2-2.2z"/><path class="st63" d="M389.6 333.8l3.8-2-4.8-9.2-3.9 2z"/><path class="st64" d="M388.7 338.9h-.5c-1.3.1-2.2.8-2.1 1.4.1.5 1 .9 2.1.9h.5c1.3-.1 2.2-.8 2.1-1.4-.1-.6-1-.9-2.1-.9"/><path class="st65" d="M315.3 196.5l-2.9-4.3s1.5 1.4 2.7 2.5c.2.7.2 1.4.2 1.8z"/><path class="st66" d="M314.3 197.1c-.4-.2-.9-.6-1.5-1.3-.2-1.6-.4-3.6-.4-3.6l1.9 4.9z"/><path class="st67" d="M315.3 196.5c0 .3-.2.5-.4.6-.2.1-.4.1-.7 0l-1.9-4.9 3 4.3z"/><path class="st9" d="M361.5 408l-.2-6.5 59.7-1.7.3 5.8z"/><path class="st2" d="M429.6 500l-4.8-95.3-64.6 1.1-2.3 94.2z"/></svg>