<svg xmlns="http://www.w3.org/2000/svg" viewBox="0 0 2670.7 2524.8"><style>.st0{fill:#06b6bb}.st1{fill:#fff}.st2{fill:#059296}.st3{fill:#ccc}.st4{fill:#ddd}.st5{fill:#aa9e8c}.st6{fill:#990d1d}.st7{fill:#b2b2b2}.st8{fill:#ff9100}.st9{fill:#877969}.st10{fill:#b3bc71}.st11{fill:#d3cdc5}.st12{fill:#d3caae}.st13{fill:#e9e4d6}.st14{fill:#887e70}.st15{fill:#6c6154}.st16{fill:#8f965a}.st17{fill:#bab6ab}.st18{fill:#111}.st19{fill:#0fb4db}.st20{fill:#1fc2dd}.st21{fill:#79daeb}.st22{fill:#1c9fb4}.st23{fill:#047578}.st24{fill:#18508c}.st25{fill:#104172}.st26{fill:#083e66}.st27{fill:#333}.st28{fill:#e8c27e}.st29{fill:#bfbfbf}.st30{fill:#103b5e}.st31{fill:#e8e8e8}.st32{fill:#a8b8c6}.st33{fill:#dbdbdb}.st34{fill:#f4d684}.st35{fill:#ffe6ae}.st36{fill:#dba82a}.st37{fill:#c3ab6a}.st38{fill:#ccb88b}.st39{fill:#af8622}.st40{fill:#e2eef2}.st41{fill:#78bece}.st42{fill:#b6d8dd}.st43{fill:#024cb7}.st44{fill:#21727f}.st45{fill:#61acba}.st46{fill:#79b6c0}.st47{fill:#cdeced}.st48{fill:#daf2f3}.st49{fill:#bbe2e5}.st50{fill:#80c3cd}.st51{fill:#99cdd3}.st52{fill:#77bcc5}.st53{fill:#80c0c7}.st54{fill:#a2d5d9}.st55{fill:#9bd1d6}.st56{fill:#d8d4cb}.st57{fill:#edddbe}.st58{fill:#a5a39f}.st59{fill:#c0bdb7}.st60{fill:#cfc4ae}.st61{fill:#c4c4c4}.st62{fill:#b2b1af}.st63{fill:#c8c8c8}.st64{fill:#d0d8d8}.st65{fill:#707070}.st66{fill:#ebebeb}.st67{fill:#eac36a}.st68{fill:#2d2d2d}.st69{fill:#b19658}</style><g id="object"><path class="st0" d="M2820.3 2807h-3000V-193h3000v3000"/><path class="st1" d="M2162.3 1991h-1500V0h1500v1991"/><path class="st2" d="M941.7 1991h-31.5l-21.8 282c-.9 11.7-10.7 20.6-22.2 20.6-.6 0-1.2 0-1.7-.1l-831.7-64.2-2.7 34.4c-.9 11.5 7.7 21.5 19.1 22.4l839.7 64.9.6-1.8 32.9-108.4 19.3-249.8"/><path class="st3" d="M961.3 1350.5l-29.4 380.8-1.7-.1-20 259.8h31.5l15.5-200.8 3.2.2 32.1-416c.9-11.5-6.4-22-17.9-22.9l-13.3-1"/><path class="st4" d="M886.9 2272.8c-.9 11.5-10.9 20-22.4 19.2l-843.8-65.2c-11.5-.9-20-10.9-19.1-22.4l73.6-953.2c.9-11.5 10.9-20 22.4-19.1l843.8 65.2c11.5.9 20 10.9 19.2 22.4l-73.7 953.1"/><path class="st5" d="M886.9 2272.8l-1.5-.1c-.8 10.1-9.2 17.8-19.2 17.8-.5 0-1 0-1.5-.1l-843.8-65.2c-10.1-.8-17.8-9.2-17.8-19.2 0-.5 0-1 .1-1.5l73.6-953.2c.8-10.1 9.2-17.8 19.2-17.8.5 0 1 0 1.5.1h.2l843.6 65.2c10.1.8 17.8 9.2 17.8 19.2 0 .5 0 1-.1 1.5l-73.6 953.2 1.5.1 1.5.1 73.6-953.2c0-.6.1-1.2.1-1.7 0-11.5-8.9-21.3-20.6-22.2l-843.8-65.2c-.6 0-1.2-.1-1.7-.1-11.5 0-21.3 8.9-22.2 20.6L.1 2204.3c0 .6-.1 1.2-.1 1.7 0 11.6 8.9 21.3 20.6 22.2l843.8 65.2c.6 0 1.2.1 1.7.1 11.5 0 21.3-8.9 22.2-20.6l-1.4-.1"/><path class="st5" d="M931.9 1731.3l32.1-416c.9-11.5-6.4-22-17.9-22.9l-843.9-65.2c-11.5-.9-20.5 8.4-21.4 19.9l-32.1 416 883.2 68.2"/><path transform="rotate(-85.583 169.154 1760.196) scale(.99997)" class="st6" d="M102.7 1693.8h132.9v132.9H102.7z"/><path transform="rotate(-85.582 328.975 1772.54) scale(.99997)" class="st7" d="M262.5 1706.1h132.9V1839H262.5z"/><path transform="rotate(-85.582 480.383 1784.235) scale(.99997)" class="st7" d="M413.9 1717.8h132.9v132.9H413.9z"/><path transform="rotate(-85.584 639.15 1796.501) scale(.99997)" class="st7" d="M572.7 1731.1h132.9v130.8H572.7z"/><path transform="rotate(-85.583 798.97 1808.843) scale(.99997)" class="st8" d="M732.5 1743.5h132.9v130.8H732.5z"/><path transform="rotate(-85.583 157.053 1916.861) scale(.99997)" class="st7" d="M91.7 1850.4h130.8v132.9H91.7z"/><path transform="rotate(-85.583 316.872 1929.207) scale(.99997)" class="st7" d="M251.5 1862.8h130.8v132.9H251.5z"/><path transform="rotate(-85.582 468.282 1940.9) scale(.99997)" class="st7" d="M402.9 1874.5h130.8v132.9H402.9z"/><path transform="rotate(-85.583 627.05 1953.166) scale(.99997)" class="st7" d="M561.7 1887.8h130.8v130.8H561.7z"/><path transform="rotate(-85.582 786.87 1965.509) scale(.99997)" class="st8" d="M721.5 1900.1h130.8v130.8H721.5z"/><path transform="rotate(-85.583 144.788 2075.63) scale(.99997)" class="st7" d="M78.3 2009.2h132.9v132.9H78.3z"/><path transform="rotate(-85.582 304.61 2087.973) scale(.99997)" class="st7" d="M238.2 2021.5h132.9v132.9H238.2z"/><path transform="rotate(-85.582 456.02 2099.667) scale(.99997)" class="st7" d="M389.6 2033.2h132.9v132.9H389.6z"/><path transform="rotate(-85.583 614.786 2111.935) scale(.99997)" class="st7" d="M548.3 2046.5h132.9v130.8H548.3z"/><path transform="rotate(-85.583 774.605 2124.277) scale(.99997)" class="st8" d="M708.2 2058.9h132.9v130.8H708.2z"/><path class="st9" d="M866.7 1698.8l-754.9-58.3 19.8-256.6 754.9 58.3-19.8 256.6"/><path class="st10" d="M853.1 1682.9l-725.5-56 13-168.2 725.5 56-13 168.2"/><path class="st1" d="M304.8 1737.8h-.1l-8 3.1-1-7.3 11.1-4.1 7.9.6-3.2 40.5-9.1-.7zM440.2 1780.5l.4-5.7 5.6-4.3c9.5-7.2 14.1-11.4 14.6-16.2.3-3.3-1.5-6.1-6.2-6.4-3.5-.3-6.7 1.2-8.9 2.7l-2.2-7c3.2-2.1 8.1-3.6 13.6-3.1 9.2.7 13.8 6.4 13.2 13.8-.5 6.8-5.9 11.8-12.1 16.6l-4 2.8v.1l15.3 1.2-.6 7.8-28.7-2.3zM599.4 1782.3c1.6 1 5.3 2.9 9.2 3.2 4.9.4 7.6-1.8 7.8-4.8.3-4-3.5-6.1-7.7-6.4l-3.9-.3.5-6.8 3.7.3c3.2.2 7.3-.7 7.6-4.1.2-2.4-1.7-4.4-5.6-4.7-3.3-.3-6.9.9-8.7 1.8l-1.4-7c2.5-1.4 7.5-2.5 12.8-2.1 8.7.7 13.1 5.6 12.7 11.1-.3 4.3-3 7.5-8.1 8.8v.1c4.8 1.3 8.4 5.2 8 10.5-.6 7.2-7.2 11.9-17.5 11.1-5.2-.4-9.5-2.1-11.8-3.8l2.4-6.9zM304.4 1893.1l-15.7-1.2-1.4 6.2c.9-.1 1.6 0 2.6.1 3.9.3 7.7 1.5 10.4 3.8 2.9 2.3 4.5 5.8 4.1 10.5-.6 7.5-7.6 13.7-18.5 12.9-4.9-.4-8.9-1.8-11.1-3.2l2.2-7c1.7 1 5.3 2.4 9 2.7 3.9.3 8.2-1.2 8.6-5.6.3-4.2-2.8-7-10.9-7.6-2.2-.2-3.8-.2-5.5-.1l4.3-21 22.3 1.7-.4 7.8zM453.2 1903.5c-1.1-.1-2.2-.2-3.7-.2-8.5 0-12.5 4-14 8.7h.2c2.2-1.9 5-2.9 8.8-2.6 6.8.5 12.1 5.8 11.5 14.2-.6 8-7.3 14.2-16.1 13.5-10.8-.8-15.4-9.3-14.7-18.9.6-7.6 3.9-13.7 8.6-17.4 4.3-3.4 9.7-5 16.1-4.8 1.8 0 2.9.1 3.8.2l-.5 7.3zm-6.8 20c.3-3.7-1.5-7.1-5.5-7.4-2.6-.2-4.8 1.2-5.9 3.2-.3.5-.5 1.2-.6 2.3-.1 4.3 1.6 8.3 5.9 8.7 3.5.2 5.8-2.7 6.1-6.8zM613.8 1908l-.5 6-19.4 33.2-10-.8 19.2-31.2v-.2l-18.5-1.4.6-7.8zM262.4 2079.4c1.2.2 2.2.3 4.1.3 2.9 0 5.9-.6 8.2-1.9 2.8-1.6 4.7-4.1 5.7-7.1l-.2-.1c-2 1.7-4.6 2.6-8.3 2.3-6.8-.5-12.3-5.8-11.7-13.6.6-7.9 7.5-14.1 16.4-13.4 10.4.8 14.7 9.2 14 18.6-.6 8.4-3.8 14.4-8.5 18.1-4.1 3.2-9.6 4.7-15.9 4.5-1.6 0-3.2-.2-4.3-.3l.5-7.4zm7.3-19.9c-.3 3.5 1.4 6.6 5.2 6.9 2.6.2 4.5-.9 5.4-2.3.4-.5.6-1.1.7-2.3.3-4.3-1-8.7-5.3-9-3.2-.2-5.8 2.5-6 6.7zM440.2 2079.5c-1 12.5-6.7 20.7-17 19.9-10.5-.8-14.3-10.6-13.5-22 .9-11.7 6.6-20.6 17.1-19.8 10.8.8 14.2 10.8 13.4 21.9zm-21-1.4c-.8 9.3 1.1 13.9 4.8 14.2 3.7.3 6-4.2 6.7-13.4.7-9-.9-13.8-4.7-14.1-3.5-.3-6.2 3.9-6.8 13.3zM597.1 2090.5c-1 12.5-6.7 20.7-17 19.9-10.5-.8-14.3-10.6-13.5-22 .9-11.7 6.6-20.6 17.1-19.8 10.7.8 14.2 10.8 13.4 21.9zm-21-1.4c-.8 9.3 1.1 13.9 4.8 14.2 3.7.3 6-4.2 6.7-13.4.7-9-.9-13.9-4.7-14.1-3.5-.4-6.2 3.9-6.8 13.3zM631.6 2093.1c-1 12.5-6.7 20.7-17 19.9-10.5-.8-14.3-10.6-13.5-22 .9-11.7 6.6-20.6 17.1-19.8 10.8.9 14.3 10.8 13.4 21.9zm-21-1.4c-.8 9.3 1.1 13.9 4.8 14.2 3.7.3 6-4.2 6.7-13.4.7-9-.9-13.8-4.7-14.1-3.4-.3-6.1 3.9-6.8 13.3zM134.9 1911.2l.7-9.7-17.9-1.4.5-6.2 17.2-23.5 11.6.9-1.8 23.7 4.9.4-.5 7.1-4.9-.4-.7 9.7-9.1-.6zm1.3-16.8l.7-9c.2-2.4.5-4.9.9-7.5h-.2c-1.5 2.5-2.8 4.8-4.3 7.2l-6.1 8.4v.1l9 .8zM102.4 2061.6c.4-4.9 3.4-8 8-9.6v-.2c-3.8-2.3-5.4-5.7-5.2-9.3.5-6.8 7-10.9 15.1-10.3 9.5.7 13 6.5 12.6 11.4-.3 3.5-2.4 6.8-6.5 8.5v.2c3.8 1.8 7 5.4 6.6 10.7-.6 7.3-7.1 11.8-16.5 11.1-10.3-.9-14.6-7.1-14.1-12.5zm20.9 1.3c.3-3.5-2.2-5.9-5.8-7.2-3.2.6-5.2 2.7-5.4 5.7-.3 2.9 1.7 5.8 5.3 6.1 3.3.2 5.7-1.8 5.9-4.6zm-9.2-20c-.2 2.7 2.1 4.7 5.3 5.9 2.2-.5 4.3-2.3 4.5-4.8.2-2.5-1-5.1-4.5-5.4-3.2-.3-5.1 1.7-5.3 4.3zM803.1 1780.2l-1.6 21.1 20.2 1.6-.7 9.1-20.2-1.6-1.7 21.3-9.5-.7 1.7-21.3-20.3-1.6.7-9.1 20.3 1.6 1.6-21.2zM790.1 1987l-3.2-7.9c-1.3-3-2.2-5.3-3.2-7.8h-.1c-1.1 2.4-2.3 4.5-3.8 7.3l-4.1 7.3-10.8-.8 13.8-20.3-10.1-21.6 10.9.8 3.1 7.9c1 2.6 1.8 4.8 2.6 7.2h.1c1.2-2.6 2.2-4.4 3.4-6.7l4.1-7.4 10.8.8-13.4 19.6 10.8 22.5-10.9-.9zM140.6 1746.6l-3.4 9.4-8.7-.7 14.3-36.4 11.1.9 8.7 38.2-9.1-.7-2.1-9.8-10.8-.9zm9.9-5.6l-1.7-8.1c-.5-2.3-.9-5.1-1.3-7.3h-.1c-.7 2.2-1.5 4.9-2.3 7.1l-2.8 7.7 8.2.6zM193.5 1759.2c-1.6.7-5.2 1.2-9.7.9-12.9-1-18.9-9.5-18.1-20.2 1-12.7 10.6-19.1 21.9-18.2 4.4.3 7.6 1.5 9.1 2.4l-2.2 6.6c-1.7-.8-4-1.7-7-1.9-6.7-.5-12.2 3.1-12.8 11.4-.6 7.5 3.5 12.5 11 13.1 2.5.2 5.4-.1 7.1-.7l.7 6.6zM658.7 1552.3l-.2-.1-14.7 6.5-1.5-8.5 18.4-8.1 9.4.8-6.3 80.9-10.6-.8zM693.3 1626.1l.5-6.7 9.2-7.7c22.2-18.1 32.3-27.8 33.4-40 .6-8.2-2.8-16.1-14.8-17.1-7.4-.6-13.7 2.7-17.7 5.5l-2.9-8c6-4.3 14.2-7.2 23.6-6.4 17.4 1.3 23.9 13.9 23 25.5-1.2 14.9-12.9 26.2-31.3 41.3l-6.9 5.5v.2l36.4 2.8-.7 9.1-51.8-4zM760.8 1618.6c3 2.2 9.9 5.9 17.5 6.5 14.1 1.1 19.1-7.5 19.5-14.3.8-11.3-9.1-17-19.7-17.8l-6.1-.5.6-8.2 6.1.5c8 .6 18.4-2.7 19.1-12.3.5-6.5-3.2-12.5-13.3-13.3-6.5-.5-12.9 1.9-16.6 4.1l-2.2-8.2c4.5-2.8 12.9-5.3 21.7-4.6 15.9 1.2 22.4 11.3 21.7 21.1-.6 8.3-6.2 15.1-16.4 17.9v.2c9.8 2.8 17.3 10.9 16.5 22.2-1 13-12 23.5-31.4 22-9.1-.7-16.8-4.2-20.6-7.1l3.6-8.2z"/><path transform="rotate(-85.583 774.28 2128.486) scale(.99997)" class="st1" d="M766.9 2103.2h14.8v50.6h-14.8z"/><path transform="rotate(-85.583 779.83 1467.84) scale(.99997)" class="st11" d="M771.4 1397.2h16.9v141.3h-16.9z"/><path class="st12" d="M753.3 279h863v29h-863zM1501.7 383.2h18.8V486h-18.8zM1542.1 433.9c0-8.5-.2-15.7-.6-22.1h16.5l.9 11.1h.5c3.2-5.8 11.3-12.8 23.6-12.8 13 0 26.4 8.4 26.4 31.9v44.1h-18.8v-42c0-10.7-4-18.8-14.2-18.8-7.5 0-12.7 5.3-14.6 11-.6 1.7-.8 4-.8 6.1V486h-18.9v-52.1zM1638.9 411.8l12.1 37.7c2.1 6.6 3.7 12.5 5 18.6h.5c1.4-6.1 3.1-11.9 5-18.6l11.7-37.7h19.8l-28.4 74.3h-18.5l-27.6-74.3h20.4zM1773.1 448.2c0 27.3-19.2 39.5-38.1 39.5-21.1 0-37.2-14.5-37.2-38.3 0-24.4 16-39.4 38.4-39.4 22.1.1 36.9 15.6 36.9 38.2zm-56 .8c0 14.3 7 25.2 18.5 25.2 10.7 0 18.2-10.5 18.2-25.5 0-11.6-5.2-24.9-18-24.9-13.3 0-18.7 12.8-18.7 25.2zM1808.5 391c0 5.6-4.1 10.1-10.7 10.1-6.3 0-10.4-4.4-10.4-10.1 0-5.8 4.3-10.2 10.5-10.2 6.5 0 10.5 4.4 10.6 10.2zm-20 95.1v-74.3h18.9v74.3h-18.9zM1882.2 483.8c-4 1.8-11.7 3.8-21.1 3.8-23.2 0-38.3-14.8-38.3-37.8 0-22.3 15.3-39.7 41.3-39.7 6.9 0 13.9 1.5 18.2 3.5l-3.4 14c-3.1-1.4-7.5-2.9-14.2-2.9-14.3 0-22.9 10.5-22.7 24.1 0 15.3 9.9 24 22.7 24 6.6 0 11.1-1.4 14.8-2.9l2.7 13.9zM1908 454.2c.5 13.4 11 19.2 22.9 19.2 8.7 0 15-1.2 20.6-3.4l2.7 13c-6.4 2.6-15.3 4.6-25.9 4.6-24.1 0-38.3-14.8-38.3-37.5 0-20.6 12.5-40 36.3-40 24.1 0 32 19.8 32 36.2 0 3.5-.3 6.3-.6 7.9H1908zm32.6-13.2c.2-6.9-2.9-18.2-15.4-18.2-11.6 0-16.5 10.5-17.2 18.2h32.6z"/><path class="st13" d="M1158.3 339h-405v29h405v-29M1324.3 399h-571v29h571v-29M2016.3 683h-1263v304.2l69.8 46.5 43.7 29.1-18.6 28 18.3 12.2H1320l6.7-9.7 5.7 1.6.3.2 13.7-29.8-4.1 32.7 6.2 1.8.1 3.2h604.8c-4.8-7.3-8.8-15.2-12-23.7-24.1-63.5 7.8-134.5 71.3-158.6 1.2-.5 2.4-.9 3.6-1.3V683"/><path class="st12" d="M753.3 683h1263v82h-1263zM849.3 833h500v29h-500zM849.3 893h359v29h-359zM1499.3 1204h513v29h-513z"/><path class="st13" d="M1740.3 1264h-241v29h241v-29M1838.3 1324h-339v29h339v-29"/><path class="st3" d="M866.5 1103h-26.4l-40.9 61.6-73.8 110.8 31.4 2.4 46.6-70 67.7-101.7-4.6-3.1"/><path class="st14" d="M391.9 1386.6l-2.6 3.9-2.2-1.5-9.3 14 19.3 1.5c-1.4-6.3-3-12.3-5.2-17.9m333.5-111.2l-85.9 129.1-11.9 17.8 31.5 2.4 12.9-19.4 84.9-127.5-31.5-2.4"/><path class="st15" d="M627.6 1422.2l-46.9 70.4 31.4 2.4 46.9-70.4-31.4-2.4m-249.8-19.3l-2.3 3.4 13.3 8.8c10.5 15.4 13.4 35.9 17 56 .6-11.2-.2-22.6-2.5-34-2.2-10.9-3.8-22.1-6.1-32.7l-19.4-1.5"/><path class="st16" d="M580.7 1492.7l-4.7 7.1c-11.1-2.8-22.7-4.4-34.4-4.4-8.8 0-17.8.9-26.8 2.7-31.6 6.3-58.4 23-77.8 45.8l-27.9-18.6c-1.5 11.9-4.6 23.4-9.1 34.4l3.6 2.4-16.4 26.5 23.1 21.9 13.4-3.2 14.8-22.1 2.9 1.9c19.4-22.7 46.2-39.4 77.8-45.8 9-1.8 18-2.7 26.8-2.7 11.8 0 23.3 1.5 34.4 4.4l.1-.2 2.6 1.7 11.6-17.4-2.6-1.7 20.2-30.3-31.6-2.4"/><path class="st17" d="M848.2 1090.8l-8.1 12.2h26.4l-18.3-12.2"/><path class="st18" d="M403.2 1437.2c5.5 27.6 2.4 54.9-7.5 79.2l41.2 27.4c19.4-22.7 46.2-39.4 77.8-45.8 21-4.2 41.8-3.3 61.3 1.7l223.2-335.2-202.8-135-216.9 336.1c16.7 18.1 18.5 45.7 23.7 71.6"/><path class="st19" d="M436.5 1538.2l-17.2 25.8-13.4 3.1-23-21.9 18.8-30.3 34.3 20.7M664.1 927.9l202.8 134.9-286.2 429.9-202.8-135 286.2-429.8"/><path class="st20" d="M687.2 943.2l150.6 100.3-286.1 429.9L401 1373.1l286.2-429.9"/><path class="st21" d="M725.4 1042l-154.8 232.6 36.9 24.6 154.9-232.5-37-24.7"/><path class="st22" d="M689 1017.8l-110.6 166 18 12 110.5-166.1-17.9-11.9"/><path transform="rotate(-56.344 480.766 1423.427)" class="st18" d="M470.3 1298.8h20.9v249.3h-20.9z"/><path class="st2" d="M1127.6 1991h-118.7l-61 200.8-9.8-3-15.7 51.8-7.1 91.4c-.8 10.9-10 19.2-20.7 19.2-.5 0-1.1 0-1.6-.1l-4.1-.3-10.1 33.3 48.6 14.8-1.4 4.7 34.6 10.5 1.4-4.7 43.6 13.2 10.7-35.1 48.6-160.3-8.2-2.6 70.9-233.6"/><path class="st3" d="M1348.6 1103H1320l-74.9 109.6-236.2 778.4h118.7l91-300 135.2-445.4-2.6-.8-2.6-141.8"/><path class="st23" d="M922.4 2240.6L889.5 2349l-.6 1.8 4.1.3c.5 0 1.1.1 1.6.1 10.8 0 19.9-8.3 20.7-19.2l7.1-91.4"/><path class="st17" d="M1346.3 1065.3l-13.6 29.8-.4-.2-5.7-1.6-6.6 9.7h28.6l-.1-3.2-6.2-1.8 4-32.7"/><path class="st24" d="M1015.4 2264.1l-106.1-32.2 325.8-1073.3 106.1 32.2z"/><path class="st25" d="M1018.1 2264.9l-50.9-15.4 325.7-1073.3 50.9 15.4z"/><path transform="rotate(-73.118 961.872 2251.793)" class="st26" d="M859.7 2185.5h204.2v132.4H859.7z"/><path class="st27" d="M1336.3 1011.3l-35.3 75.9 24.9 8z"/><path class="st28" d="M1337.7 1088.9zM1337.8 1089.8l-.1-.9-.1.8z"/><path class="st29" d="M1235.1 1158.6l106.1 32.2-2.7-145-22.1-6.5z"/><path class="st30" d="M1208.6 1637.1l-108.8-33 135.3-445.5 108.7 33z"/><path class="st31" d="M1253.4 1164.2l68.6-123.3 8.8 2.6-43.1 131.1z"/><path class="st32" d="M995.6 2368.7l-126.8-38.5 10.7-35.1 126.7 38.5z"/><path transform="rotate(-73.118 992.523 2159.475)" class="st33" d="M788.4 2141.4h408.4v36.1H788.4z"/><path class="st2" d="M2359 1056c2.3 9.9 3.6 20.2 3.6 30.9 0 73.9-59.9 133.8-133.8 133.8-24.1 0-46.7-6.4-66.2-17.5 23.3 27.5 57.8 43.5 93.9 43.5 14.5 0 29.2-2.6 43.6-8 63.5-24.1 95.4-95.1 71.3-158.6-3.4-8.6-7.6-16.7-12.4-24.1"/><path class="st34" d="M2362.5 1086.9c0 73.9-59.9 133.8-133.8 133.8s-133.8-59.9-133.8-133.8 59.9-133.8 133.8-133.8c73.9-.1 133.8 59.8 133.8 133.8"/><path class="st35" d="M2233.7 1211.9c-66.2 0-120-53.8-120-120s53.8-120 120-120 120 53.8 120 120-53.8 120-120 120m0-222.4c-56.5 0-102.4 45.9-102.4 102.4s45.9 102.4 102.4 102.4c56.5 0 102.4-45.9 102.4-102.4s-45.9-102.4-102.4-102.4"/><path class="st35" d="M2226.1 1162.9v-17.2c-12.1-.5-23.9-3.8-30.8-7.8l5.4-21.2c7.6 4.2 18.3 8 30 8 10.3 0 17.4-4 17.4-11.2 0-6.9-5.8-11.2-19.2-15.7-19.4-6.5-32.6-15.6-32.6-33.1 0-15.9 11.2-28.4 30.6-32.2v-17.2h17.7v15.9c12.1.5 20.3 3.1 26.2 6l-5.2 20.5c-4.7-2-13-6.2-26.1-6.2-11.8 0-15.6 5.1-15.6 10.1 0 6 6.3 9.8 21.7 15.6 21.5 7.6 30.2 17.6 30.2 33.8 0 16.1-11.4 29.9-32.2 33.5v18.5h-17.5z"/><path class="st36" d="M2228.7 1206.9c-66.2 0-120-53.8-120-120s53.8-120 120-120 120 53.8 120 120c0 66.1-53.8 120-120 120m0-222.5c-56.5 0-102.4 45.9-102.4 102.4 0 56.5 45.9 102.4 102.4 102.4 56.5 0 102.4-45.9 102.4-102.4 0-56.4-45.9-102.4-102.4-102.4"/><path class="st36" d="M2221 1157.9v-17.2c-12.1-.5-23.9-3.8-30.8-7.8l5.4-21.2c7.6 4.2 18.3 8 30 8 10.3 0 17.4-4 17.4-11.2 0-6.9-5.8-11.2-19.2-15.7-19.4-6.5-32.6-15.6-32.6-33.1 0-15.9 11.2-28.4 30.6-32.2v-17.2h17.7v15.9c12.1.5 20.3 3.1 26.2 6l-5.3 20.5c-4.7-2-13-6.2-26.1-6.2-11.8 0-15.6 5.1-15.6 10.1 0 6 6.3 9.8 21.7 15.6 21.5 7.6 30.2 17.6 30.2 33.8 0 16.1-11.4 29.9-32.2 33.5v18.5H2221z"/><path class="st3" d="M2056.3 912.7c-13.3 0-26.8 2.2-40 6.7V1103h-62.9c22.8 35 61.9 55.7 102.9 55.7 14.5 0 29.2-2.6 43.6-8 3.1-1.2 6.1-2.5 9.1-3.9-9-18-14.1-38.4-14.1-59.9 0-49.2 26.6-92.3 66.2-115.5-22.5-36.8-62.6-58.7-104.8-58.7"/><path class="st17" d="M2016.3 919.5c-1.2.4-2.4.9-3.6 1.3-63.5 24.1-95.4 95.1-71.3 158.6 3.2 8.5 7.3 16.4 12 23.7h62.9V919.5"/><path class="st37" d="M2176 1007.3c-26.9 18.5-44.6 49.5-44.6 84.5 0 12.6 2.3 24.7 6.5 35.9 33.3-29.4 48.7-75.7 38.1-120.4m-14.9-36c-39.6 23.2-66.2 66.3-66.2 115.5 0 21.6 5.1 41.9 14.1 59.9 4.2-2 8.3-4.2 12.2-6.6-8-16.1-12.5-34.2-12.5-53.3 0-43.9 23.7-82.4 59-103.3-2-4.2-4.2-8.3-6.6-12.2"/><path class="st38" d="M2174 1000.3c-28.7 18.2-47.8 50.2-47.8 86.6 0 15.3 3.4 29.8 9.4 42.8.7-.6 1.4-1.2 2.1-1.9-4.2-11.2-6.5-23.3-6.5-35.9 0-35.1 17.7-66.1 44.6-84.5-.4-2.4-1-4.8-1.8-7.1"/><path class="st39" d="M2167.7 983.6c-35.3 20.9-59 59.4-59 103.3 0 19.1 4.5 37.2 12.5 53.3 5.1-3.2 10-6.7 14.5-10.5-6-13-9.4-27.5-9.4-42.8 0-36.4 19.1-68.4 47.8-86.6-.8-2.7-1.8-5.5-2.8-8.2-1.1-2.9-2.4-5.8-3.6-8.5"/><circle class="st34" cx="2020.9" cy="994.1" r="149.8"/><path class="st35" d="M2026.5 1134.1c-74.1 0-134.3-60.3-134.3-134.3 0-74.1 60.3-134.3 134.3-134.3 74.1 0 134.3 60.3 134.3 134.3.1 74-60.2 134.3-134.3 134.3zm0-249c-63.2 0-114.6 51.4-114.6 114.6s51.4 114.6 114.6 114.6c63.2 0 114.6-51.4 114.6-114.6s-51.3-114.6-114.6-114.6z"/><path class="st35" d="M2018 1079.3V1060c-13.6-.6-26.7-4.3-34.4-8.7l6.1-23.7c8.5 4.7 20.5 8.9 33.6 8.9 11.5 0 19.4-4.5 19.4-12.6 0-7.7-6.5-12.6-21.5-17.6-21.7-7.3-36.5-17.4-36.5-37.1 0-17.8 12.6-31.8 34.2-36.1v-19.2h19.8v17.8c13.6.6 22.7 3.4 29.4 6.7l-5.9 22.9c-5.3-2.2-14.6-6.9-29.2-6.9-13.2 0-17.4 5.7-17.4 11.3 0 6.7 7.1 10.9 24.3 17.4 24.1 8.5 33.8 19.7 33.8 37.9 0 18-12.8 33.4-36.1 37.5v20.7H2018z"/><path class="st36" d="M2020.9 1128.4c-74.1 0-134.3-60.3-134.3-134.3 0-74.1 60.3-134.3 134.3-134.3 74.1 0 134.3 60.3 134.3 134.3 0 74.1-60.2 134.3-134.3 134.3zm0-248.9c-63.2 0-114.6 51.4-114.6 114.6 0 63.2 51.4 114.6 114.6 114.6 63.2 0 114.6-51.4 114.6-114.6.1-63.2-51.4-114.6-114.6-114.6z"/><path class="st36" d="M2012.3 1073.6v-19.2c-13.6-.6-26.7-4.3-34.4-8.7l6.1-23.7c8.5 4.7 20.5 8.9 33.6 8.9 11.5 0 19.5-4.5 19.5-12.6 0-7.7-6.5-12.6-21.5-17.6-21.7-7.3-36.5-17.4-36.5-37.1 0-17.8 12.6-31.8 34.2-36.1v-19.2h19.9v17.8c13.6.6 22.7 3.4 29.4 6.7l-5.9 22.9c-5.3-2.2-14.6-6.9-29.2-6.9-13.2 0-17.4 5.7-17.4 11.3 0 6.7 7.1 10.9 24.3 17.4 24.1 8.5 33.8 19.7 33.8 37.9 0 18-12.8 33.4-36.1 37.5v20.7h-19.8z"/><path class="st2" d="M2265.9 766.7c-13.6 0-27.4 2.4-40.9 7.5-28.5 10.8-50.3 31.8-62.7 57.2v101.2c5.2 10.7 11.9 20.3 19.8 28.6 14.5-5.4 30.2-8.3 46.6-8.3 33.6 0 64.2 12.4 87.7 32.8 53.1-25.8 78.7-88.3 57.3-144.6-17.4-46-61.3-74.4-107.8-74.4"/><path class="st3" d="M2162.3 831.5c-13.5 27.6-16 60.5-4.2 91.5 1.3 3.3 2.7 6.6 4.2 9.7V831.5"/><path class="st37" d="M2233.7 989.5c-3 0-5.9.1-8.9.4 13 5 26.9 7.6 41.1 7.6 2.3 0 4.6-.1 6.9-.2-12-5.1-25.2-7.8-39.1-7.8m-5-36.5c-16.4 0-32.1 2.9-46.6 8.3 3.6 3.8 7.5 7.4 11.6 10.7 11.1-3.4 22.8-5.2 35-5.2 27.5 0 52.8 9.3 73.1 24.9l5.1-1.8c3.3-1.2 6.5-2.6 9.6-4.1-23.6-20.4-54.2-32.8-87.8-32.8"/><path class="st38" d="M2228.7 984.4c-4.8 0-9.4.3-14 1 3.3 1.6 6.7 3.1 10.2 4.5 2.9-.3 5.9-.4 8.9-.4 13.9 0 27.1 2.8 39.1 7.8 1.6-.1 3.1-.2 4.7-.4-14.6-8-31.2-12.5-48.9-12.5"/><path class="st39" d="M2228.7 966.8c-12.2 0-23.9 1.8-35 5.2 6.5 5.2 13.5 9.7 20.9 13.4 4.6-.6 9.3-1 14-1 17.7 0 34.3 4.5 48.8 12.4 8.1-.8 16.2-2.5 24.2-5.1-20.1-15.6-45.4-24.9-72.9-24.9"/><circle class="st34" cx="2259.5" cy="871.8" r="114.1"/><path class="st35" d="M2263.8 978.4c-56.4 0-102.3-45.9-102.3-102.3s45.9-102.3 102.3-102.3 102.3 45.9 102.3 102.3-45.9 102.3-102.3 102.3zm0-189.7c-48.1 0-87.3 39.2-87.3 87.3 0 48.1 39.2 87.3 87.3 87.3 48.1 0 87.3-39.2 87.3-87.3 0-48.1-39.1-87.3-87.3-87.3z"/><path class="st35" d="M2257.3 936.6v-14.7c-10.3-.5-20.4-3.2-26.2-6.6l4.6-18.1c6.5 3.5 15.6 6.8 25.6 6.8 8.8 0 14.8-3.4 14.8-9.6 0-5.9-4.9-9.6-16.4-13.4-16.5-5.6-27.8-13.3-27.8-28.2 0-13.6 9.6-24.2 26.1-27.5v-14.7h15.1v13.6c10.3.5 17.3 2.6 22.4 5.1l-4.5 17.4c-4-1.7-11.1-5.2-22.2-5.2-10 0-13.3 4.3-13.3 8.6 0 5.1 5.4 8.3 18.5 13.3 18.4 6.5 25.8 15 25.8 28.9 0 13.7-9.7 25.5-27.5 28.5v15.7h-15z"/><path class="st36" d="M2259.5 974.1c-56.4 0-102.3-45.9-102.3-102.3s45.9-102.3 102.3-102.3 102.3 45.9 102.3 102.3-45.9 102.3-102.3 102.3zm0-189.7c-48.1 0-87.3 39.2-87.3 87.3 0 48.1 39.2 87.3 87.3 87.3 48.1 0 87.3-39.2 87.3-87.3 0-48.1-39.1-87.3-87.3-87.3z"/><path class="st36" d="M2253 932.3v-14.7c-10.3-.5-20.4-3.2-26.2-6.6l4.6-18.1c6.5 3.6 15.6 6.8 25.6 6.8 8.8 0 14.8-3.4 14.8-9.6 0-5.9-4.9-9.6-16.4-13.4-16.5-5.6-27.8-13.3-27.8-28.2 0-13.6 9.6-24.2 26.1-27.5v-14.7h15.1V820c10.3.5 17.3 2.6 22.4 5.1l-4.5 17.4c-4-1.7-11.1-5.2-22.2-5.2-10 0-13.3 4.3-13.3 8.6 0 5.1 5.4 8.3 18.5 13.3 18.4 6.5 25.8 15 25.8 28.9 0 13.7-9.7 25.5-27.5 28.5v15.7h-15z"/><path class="st40" d="M2670.7 1721.7l-982.6 284.2-144.8-500.8 982.5-284.2 144.9 500.8"/><path class="st41" d="M2630.2 1702.6l-254.2 73.5-127.8-442 254.2-73.5 127.8 442"/><path class="st42" d="M2436.7 1758.5L2047.9 1871 1920 1429l388.9-112.5 127.8 442"/><path transform="rotate(-16.13 1922.703 1472.755)" class="st43" d="M1847.3 1430.1h150.1v84.9h-150.1z"/><path class="st44" d="M2208.2 1394.2l24.1-7 38.3 132.3-29.2 8.5-28.7-99.2-19.7 5.7-5.3-18.4c.2.1.3.1.5.1s.4 0 .7-.1c.2-.1.5-.1.7-.1h.5c1-.3 2-.7 3.1-1.2 1-.5 2-1 2.9-1.6 3.4-2.2 6.3-5 8.7-8.4 2.5-3.4 3.6-6.9 3.5-10.5l-.1-.1zM2290.5 1479.6l-21.1-73c-2.2-9.9-.9-18.6 3.9-26.1 4.8-7.6 12.8-13 24.1-16.3l3.3-1.1c12.4-3.5 22-2.8 28.8 2 6.8 4.8 11.3 11.1 13.6 19.1l21.4 74.1c3 12.6 1.7 22.1-3.7 28.5-5.4 6.4-12.1 11-20 13.7-.6.3-1.2.5-1.8.7-.6.2-1.2.4-1.8.5l-3.3 1c-8.7 2.5-17.3 2.1-25.7-1.1-8.5-3.3-14.3-10.5-17.5-21.6l-.2-.4zm23-84.4c-.7-2.3-1.8-4.1-3.5-5.3-1.7-1.2-3.3-1.8-4.9-1.9-.3.1-.5.1-.8.1-.3 0-.5 0-.8.1-.2.1-.5.1-.6.2-.2.1-.4.2-.6.4-1.5.8-2.6 2.3-3.4 4.5-.8 2.2-.7 4.8.2 7.8l19.9 68.8c1 3.4 2.4 5.9 4.3 7.4 1.8 1.5 3.6 2.3 5.3 2.2h.7c.2-.1.4-.1.6-.2 1.8-.5 3.3-1.9 4.3-4 1-2.2 1.1-4.8.2-7.8l-20.5-70.8-.4-1.5zM2373.9 1455.5l-21.1-73c-2.2-9.9-.9-18.6 3.9-26.1 4.8-7.6 12.8-13 24.1-16.3l3.3-1.1c12.4-3.5 22-2.8 28.8 2 6.8 4.8 11.3 11.1 13.6 19.1l21.4 74.1c3 12.6 1.7 22.1-3.7 28.5-5.4 6.4-12.1 11-20 13.7-.6.3-1.2.5-1.8.7-.6.2-1.2.4-1.8.5l-3.3 1c-8.7 2.5-17.3 2.1-25.8-1.1-8.5-3.3-14.3-10.5-17.5-21.6l-.1-.4zm23-84.4c-.7-2.3-1.8-4.1-3.5-5.3-1.7-1.2-3.3-1.8-4.9-1.9-.2.1-.5.1-.8.1-.3 0-.5 0-.8.1-.3.1-.5.1-.6.2-.2.1-.4.2-.6.4-1.5.8-2.6 2.3-3.4 4.5-.8 2.2-.7 4.8.2 7.8l19.9 68.8c1 3.4 2.4 5.9 4.2 7.4 1.8 1.5 3.6 2.2 5.3 2.2h.7c.2-.1.4-.1.6-.2 1.8-.5 3.3-1.9 4.3-4 1-2.2 1.1-4.8.2-7.8l-20.5-70.8-.3-1.5z"/><path class="st45" d="M2468 1603.5l12 41.8-70.2 20.3 26.9 92.9 70.2-20.3-38.9-134.7"/><path class="st46" d="M2297.9 1697.9l-74 21.4 26.9 92.9 74-21.4-26.9-92.9m111.9-32.3l-20.9 6 26.9 92.9 20.9-6-26.9-92.9"/><path class="st47" d="M2358.8 1567.3l-91 26.3 6 20.9 91-26.4-6-20.8"/><path class="st48" d="M2415.9 1764.5l-91.1 26.4 91.1-26.3"/><path class="st47" d="M2415.9 1764.5l-91.1 26.4 91.1-26.4v.1"/><path class="st49" d="M2389 1671.6l-91.1 26.3 26.9 93 91.1-26.4-26.9-92.9"/><path class="st50" d="M2455.9 1561.8l-70.2 20.3 12.1 41.7 70.2-20.3-12.1-41.7"/><path class="st51" d="M2273.8 1614.5l-74 21.4 24.1 83.5-12.1-41.7 74-21.4-12-41.8m111.9-32.4l-20.9 6 12.1 41.7 20.9-6-12.1-41.7"/><path class="st52" d="M2468 1603.5l-70.2 20.3 12 41.8 70.2-20.3-12-41.8"/><path class="st53" d="M2285.9 1656.2l-74 21.4 12.1 41.7 74-21.4-12.1-41.7m111.9-32.4l-20.9 6 12.1 41.7 20.9-6-12.1-41.7"/><path class="st54" d="M2364.8 1588.1l-91 26.4 12.1 41.7 91-26.3-12.1-41.8"/><path class="st55" d="M2376.9 1629.9l-91 26.3 12 41.7 91.1-26.3-12.1-41.7"/><path transform="rotate(-16.13 1702.6 1536.394)" class="st42" d="M1611.5 1493.7h181.7v84.9h-181.7z"/><path class="st56" d="M2351.4 2487.3l-1098.6-299.9 153.1-560.7 1098.6 299.9-153.1 560.7"/><path class="st57" d="M1753.9 2288.2l-433.7-118.4 134.3-492 433.8 118.4-134.4 492"/><path class="st58" d="M2351.4 2487.3l-319.2-87.1 153.1-560.8 319.2 87.2-153.1 560.7"/><path class="st4" d="M2108.4 2385l-435.6-118.9 134.3-492 435.6 118.9-134.3 492"/><path class="st59" d="M1888.3 1796.2l79.3 21.7-79.3-21.7"/><path class="st60" d="M1715.5 1749.1l-24.6 89.9 91.7 25 24.5-89.9 81.2 22.1-172.8-47.1"/><path class="st61" d="M1807.1 1774.1l-24.5 89.9 160.5 43.8 24.5-89.9-79.3-21.7-81.2-22.1"/><path class="st62" d="M2201.5 2356.3l-92.3 25.8-.8 2.9 79.3 21.6 13.8-50.3"/><path class="st63" d="M2109.2 2382.1l-5.5 1.6 4.7 1.3.8-2.9"/><path transform="rotate(-74.728 1539.228 1749.235)" class="st64" d="M1492.6 1648.7h93.2v201.1h-93.2z"/><path class="st65" d="M1484.7 1715.9l15.2 4.2-22.8 83.5-18.5-5 17.1-62.6-12.4-3.4 3.2-11.6c.1.1.1.2.2.3.1.1.2.1.4.2.1 0 .3.1.4.2.1.1.2.1.3.1.6.2 1.3.3 2 .4.7.1 1.4.1 2.1.1 2.5-.1 5-.6 7.4-1.6 2.4-1 4.2-2.5 5.3-4.5l.1-.3zM1500.9 1788.7l12.6-46.1c2-6 5.6-10.2 10.7-12.8 5-2.5 11.1-2.8 18.3-.8l2.1.5c7.8 2.2 12.7 5.7 14.8 10.5 2.1 4.8 2.4 9.7 1 14.7l-12.8 46.8c-2.5 7.7-6.3 12.4-11.3 14.1-5 1.7-10.1 1.9-15.2.8-.4 0-.8-.1-1.2-.2l-1.2-.3-2.1-.6c-5.5-1.5-10-4.5-13.4-9-3.5-4.5-4.2-10.3-2.3-17.3v-.3zm40-37.7c.4-1.5.4-2.8-.2-4-.5-1.2-1.2-2.1-2-2.6-.2 0-.3-.1-.5-.2-.1-.1-.3-.1-.5-.2-.2 0-.3-.1-.4-.1h-.4c-1.1 0-2.2.4-3.3 1.3-1.1.9-1.9 2.3-2.5 4.3l-11.9 43.4c-.6 2.2-.7 4-.2 5.4.5 1.4 1.2 2.4 2.2 2.9.1.1.3.2.4.2.1 0 .2.1.4.1 1.2.3 2.4.1 3.6-.8 1.3-.8 2.2-2.2 2.7-4.1l12.2-44.7.4-.9zM1553.5 1803.1l12.6-46.1c2-6 5.6-10.2 10.7-12.8 5-2.5 11.1-2.8 18.2-.8l2.1.5c7.8 2.2 12.7 5.7 14.8 10.5 2.1 4.8 2.4 9.7 1 14.7l-12.8 46.8c-2.5 7.7-6.3 12.4-11.3 14.1-5 1.7-10.1 1.9-15.2.8-.4 0-.8-.1-1.2-.2l-1.2-.3-2.1-.6c-5.5-1.5-10-4.5-13.4-9-3.5-4.5-4.2-10.3-2.3-17.3l.1-.3zm40-37.8c.4-1.5.3-2.8-.2-4-.5-1.2-1.2-2.1-2-2.6-.2 0-.3-.1-.5-.2-.1-.1-.3-.1-.4-.2-.2 0-.3-.1-.4-.1h-.4c-1.1 0-2.2.4-3.3 1.3-1.1.9-2 2.3-2.5 4.3l-11.9 43.4c-.6 2.2-.6 4-.2 5.4.5 1.4 1.2 2.4 2.1 2.9.1.1.3.2.4.2.1 0 .3.1.4.1 1.2.3 2.4.1 3.6-.8 1.3-.8 2.2-2.2 2.7-4.1l12.2-44.7.4-.9z"/><path class="st66" d="M1970.4 1929.4c-54.9 0-106.5 26.5-138.6 70.4l204.5-57.3c-6.6-2.7-13.5-5.1-20.6-7-15.1-4.1-30.4-6.1-45.3-6.1"/><path class="st67" d="M2305.3 2290.7c5.2 18.7-5.3 38-24 43.2l-676.9 189.5c-18.7 5.3-38.2-5.6-43.4-24.4l-100.5-359c-5.2-18.7 5.8-38 24.5-43.2l676.9-189.5c18.7-5.2 37.7 5.6 42.9 24.3l100.5 359.1"/><path transform="rotate(-15.64 1858.748 2128.984)" class="st68" d="M1472.1 2072.3h773v113h-773z"/><path class="st69" d="M1778.7 2053.1l-299.5 83.8 2.7 9.6 299.5-83.8-2.7-9.6M2239 2228.4l-381.3 106.8 2.4 8.7 381.3-106.8-2.4-8.7M2233.9 2210.1l-381.4 106.8 2.5 8.7 381.3-106.8-2.4-8.7M2251.7 2273.7l-381.4 106.8 2.5 8.6 381.3-106.7-2.4-8.7M2246.6 2255.4l-381.4 106.8 2.7 9.6 381.4-106.8-2.7-9.6"/><path transform="rotate(-15.64 1712.164 2287.918)" class="st1" d="M1537.5 2249.7h349v76h-349z"/><path transform="rotate(-15.64 1858.748 2128.984)" class="st68" d="M1472.1 2072.3h773v113h-773z"/></g></svg>